<?xml version="1.0" standalone="no"?>
<!DOCTYPE svg PUBLIC "-//W3C//DTD SVG 1.1//EN"
"http://www.w3.org/Graphics/SVG/1.1/DTD/svg11.dtd">

<svg width="614" height="422" view_box="0 0 614 422"
xmlns="http://www.w3.org/2000/svg"
xmlns:link="http://www.w3.org/1999/xlink">\n\n<desc>Généré par Mocodo 2.3.7 le Thu, 30 Nov 2017 05:36:06</desc>

<rect id="frame" x="0" y="0" width="614" height="422" fill="#f7f7f7" stroke="none" stroke-width="0"/>

<!-- Association DF5 -->
<line x1="307" y1="77" x2="555" y2="186" stroke="#4393c3" stroke-width="2"/>
<text x="352" y="90.023438735" fill="#b2182b" font-family="Verdana" font-size="12">0,1</text>
<line x1="555" y1="320" x2="555" y2="186" stroke="#4393c3" stroke-width="2"/>
<text x="560.0" y="219" fill="#b2182b" font-family="Verdana" font-size="12">1,1</text>
<g id="association-DF5">
	<circle cx="555" cy="186" r="16" stroke="#4393c3" stroke-width="2" fill="#92c5de"/>
	<text x="546" y="190.0" fill="#000000" font-family="Verdana" font-size="12">DF</text>
</g>

<!-- Association DF4 -->
<line x1="307" y1="77" x2="426" y2="186" stroke="#4393c3" stroke-width="2"/>
<text x="352" y="112.271484423" fill="#b2182b" font-family="Verdana" font-size="12">0,1</text>
<line x1="426" y1="320" x2="426" y2="186" stroke="#4393c3" stroke-width="2"/>
<text x="431.0" y="227" fill="#b2182b" font-family="Verdana" font-size="12">1,1</text>
<g id="association-DF4">
	<circle cx="426" cy="186" r="16" stroke="#4393c3" stroke-width="2" fill="#92c5de"/>
	<text x="417" y="190.0" fill="#000000" font-family="Verdana" font-size="12">DF</text>
</g>

<!-- Association DF1 -->
<line x1="307" y1="77" x2="49" y2="186" stroke="#4393c3" stroke-width="2"/>
<text x="241" y="89.2085220788" fill="#b2182b" font-family="Verdana" font-size="12">0,1</text>
<line x1="49" y1="320" x2="49" y2="186" stroke="#4393c3" stroke-width="2"/>
<text x="54.0" y="236" fill="#b2182b" font-family="Verdana" font-size="12">1,1</text>
<g id="association-DF1">
	<circle cx="49" cy="186" r="16" stroke="#4393c3" stroke-width="2" fill="#92c5de"/>
	<text x="40" y="190.0" fill="#000000" font-family="Verdana" font-size="12">DF</text>
</g>

<!-- Association DF3 -->
<line x1="307" y1="77" x2="307" y2="186" stroke="#4393c3" stroke-width="2"/>
<text x="312.0" y="162" fill="#b2182b" font-family="Verdana" font-size="12">0,1</text>
<line x1="307" y1="320" x2="307" y2="186" stroke="#4393c3" stroke-width="2"/>
<text x="312.0" y="219" fill="#b2182b" font-family="Verdana" font-size="12">1,1</text>
<g id="association-DF3">
	<circle cx="307" cy="186" r="16" stroke="#4393c3" stroke-width="2" fill="#92c5de"/>
	<text x="298" y="190.0" fill="#000000" font-family="Verdana" font-size="12">DF</text>
</g>

<!-- Association DF2 -->
<line x1="307" y1="77" x2="178" y2="186" stroke="#4393c3" stroke-width="2"/>
<text x="241" y="109.032072965" fill="#b2182b" font-family="Verdana" font-size="12">0,1</text>
<line x1="178" y1="320" x2="178" y2="186" stroke="#4393c3" stroke-width="2"/>
<text x="183.0" y="227" fill="#b2182b" font-family="Verdana" font-size="12">1,1</text>
<g id="association-DF2">
	<circle cx="178" cy="186" r="16" stroke="#4393c3" stroke-width="2" fill="#92c5de"/>
	<text x="169" y="190.0" fill="#000000" font-family="Verdana" font-size="12">DF</text>
</g>

<!-- Entity PROFESSIONALS -->
<g id="entity-PROFESSIONALS">
	<g id="frame-PROFESSIONALS">
		<rect x="121" y="235" width="114" height="25" fill="#f4a582" stroke="#f4a582" stroke-width="0"/>
		<rect x="121" y="260.0" width="114" height="145" fill="#fddbc7" stroke="#fddbc7" stroke-width="0"/>
		<rect x="121" y="235" width="114" height="170" fill="none" stroke="#d6604d" stroke-width="2"/>
		<line x1="121" y1="260" x2="235" y2="260" stroke="#d6604d" stroke-width="1"/>
	</g>
	<text x="126" y="252.7" fill="#000000" font-family="Verdana" font-size="12">PROFESSIONALS</text>
	<text x="126" y="277.7" fill="#000000" font-family="Verdana" font-size="12">idt_professional</text>
	<line x1="126" y1="280" x2="223" y2="280" stroke="#000000" stroke-width="1"/>
	<text x="126" y="294.7" fill="#000000" font-family="Verdana" font-size="12">language</text>
	<text x="126" y="311.7" fill="#000000" font-family="Verdana" font-size="12">short_label</text>
	<text x="126" y="328.8" fill="#000000" font-family="Verdana" font-size="12">detail</text>
	<text x="126" y="345.8" fill="#000000" font-family="Verdana" font-size="12">date_start</text>
	<text x="126" y="362.8" fill="#000000" font-family="Verdana" font-size="12">date_end</text>
	<text x="126" y="379.8" fill="#000000" font-family="Verdana" font-size="12">created_at</text>
	<text x="126" y="396.8" fill="#000000" font-family="Verdana" font-size="12">updated_at</text>
</g>

<!-- Entity SKILLS -->
<g id="entity-SKILLS">
	<g id="frame-SKILLS">
		<rect x="9" y="244" width="80" height="25" fill="#f4a582" stroke="#f4a582" stroke-width="0"/>
		<rect x="9" y="269.0" width="80" height="127" fill="#fddbc7" stroke="#fddbc7" stroke-width="0"/>
		<rect x="9" y="244" width="80" height="152" fill="none" stroke="#d6604d" stroke-width="2"/>
		<line x1="9" y1="269" x2="89" y2="269" stroke="#d6604d" stroke-width="1"/>
	</g>
	<text x="27" y="261.7" fill="#000000" font-family="Verdana" font-size="12">SKILLS</text>
	<text x="14" y="286.7" fill="#000000" font-family="Verdana" font-size="12">idt_skill</text>
	<line x1="14" y1="289" x2="61" y2="289" stroke="#000000" stroke-width="1"/>
	<text x="14" y="303.7" fill="#000000" font-family="Verdana" font-size="12">language</text>
	<text x="14" y="320.8" fill="#000000" font-family="Verdana" font-size="12">short_label</text>
	<text x="14" y="337.8" fill="#000000" font-family="Verdana" font-size="12">detail</text>
	<text x="14" y="354.8" fill="#000000" font-family="Verdana" font-size="12">level</text>
	<text x="14" y="371.8" fill="#000000" font-family="Verdana" font-size="12">created_at</text>
	<text x="14" y="388.8" fill="#000000" font-family="Verdana" font-size="12">updated_at</text>
</g>

<!-- Entity MESSAGES -->
<g id="entity-MESSAGES">
	<g id="frame-MESSAGES">
		<rect x="505" y="227" width="100" height="25" fill="#f4a582" stroke="#f4a582" stroke-width="0"/>
		<rect x="505" y="252.0" width="100" height="161" fill="#fddbc7" stroke="#fddbc7" stroke-width="0"/>
		<rect x="505" y="227" width="100" height="186" fill="none" stroke="#d6604d" stroke-width="2"/>
		<line x1="505" y1="252" x2="605" y2="252" stroke="#d6604d" stroke-width="1"/>
	</g>
	<text x="521" y="244.7" fill="#000000" font-family="Verdana" font-size="12">MESSAGES</text>
	<text x="510" y="269.7" fill="#000000" font-family="Verdana" font-size="12">idt_message</text>
	<line x1="510" y1="272" x2="587" y2="272" stroke="#000000" stroke-width="1"/>
	<text x="510" y="286.7" fill="#000000" font-family="Verdana" font-size="12">name_contact</text>
	<text x="510" y="303.7" fill="#000000" font-family="Verdana" font-size="12">phone_contact</text>
	<text x="510" y="320.8" fill="#000000" font-family="Verdana" font-size="12">email</text>
	<text x="510" y="337.8" fill="#000000" font-family="Verdana" font-size="12">message</text>
	<text x="510" y="354.8" fill="#000000" font-family="Verdana" font-size="12">flag_urgent</text>
	<text x="510" y="371.8" fill="#000000" font-family="Verdana" font-size="12">date</text>
	<text x="510" y="388.8" fill="#000000" font-family="Verdana" font-size="12">created_at</text>
	<text x="510" y="405.8" fill="#000000" font-family="Verdana" font-size="12">updated_at</text>
</g>

<!-- Entity AUTHORS -->
<g id="entity-AUTHORS">
	<g id="frame-AUTHORS">
		<rect x="267" y="9" width="80" height="25" fill="#f4a582" stroke="#f4a582" stroke-width="0"/>
		<rect x="267" y="34.0" width="80" height="111" fill="#fddbc7" stroke="#fddbc7" stroke-width="0"/>
		<rect x="267" y="9" width="80" height="136" fill="none" stroke="#d6604d" stroke-width="2"/>
		<line x1="267" y1="34" x2="347" y2="34" stroke="#d6604d" stroke-width="1"/>
	</g>
	<text x="277" y="26.7" fill="#000000" font-family="Verdana" font-size="12">AUTHORS</text>
	<text x="272" y="51.7" fill="#000000" font-family="Verdana" font-size="12">idt_author</text>
	<line x1="272" y1="54" x2="336" y2="54" stroke="#000000" stroke-width="1"/>
	<text x="272" y="68.7" fill="#000000" font-family="Verdana" font-size="12">email</text>
	<text x="272" y="85.8" fill="#000000" font-family="Verdana" font-size="12">password</text>
	<text x="272" y="102.8" fill="#000000" font-family="Verdana" font-size="12">url</text>
	<text x="272" y="119.8" fill="#000000" font-family="Verdana" font-size="12">created_at</text>
	<text x="272" y="136.8" fill="#000000" font-family="Verdana" font-size="12">updated_at</text>
</g>

<!-- Entity PERSONNALS -->
<g id="entity-PERSONNALS">
	<g id="frame-PERSONNALS">
		<rect x="379" y="235" width="94" height="25" fill="#f4a582" stroke="#f4a582" stroke-width="0"/>
		<rect x="379" y="260.0" width="94" height="145" fill="#fddbc7" stroke="#fddbc7" stroke-width="0"/>
		<rect x="379" y="235" width="94" height="170" fill="none" stroke="#d6604d" stroke-width="2"/>
		<line x1="379" y1="260" x2="473" y2="260" stroke="#d6604d" stroke-width="1"/>
	</g>
	<text x="384" y="252.7" fill="#000000" font-family="Verdana" font-size="12">PERSONNALS</text>
	<text x="384" y="277.7" fill="#000000" font-family="Verdana" font-size="12">idt_personnal</text>
	<line x1="384" y1="280" x2="467" y2="280" stroke="#000000" stroke-width="1"/>
	<text x="384" y="294.7" fill="#000000" font-family="Verdana" font-size="12">language</text>
	<text x="384" y="311.7" fill="#000000" font-family="Verdana" font-size="12">short_label</text>
	<text x="384" y="328.8" fill="#000000" font-family="Verdana" font-size="12">detail</text>
	<text x="384" y="345.8" fill="#000000" font-family="Verdana" font-size="12">date_start</text>
	<text x="384" y="362.8" fill="#000000" font-family="Verdana" font-size="12">date_end</text>
	<text x="384" y="379.8" fill="#000000" font-family="Verdana" font-size="12">created_at</text>
	<text x="384" y="396.8" fill="#000000" font-family="Verdana" font-size="12">updated_at</text>
</g>

<!-- Entity PROJECTS -->
<g id="entity-PROJECTS">
	<g id="frame-PROJECTS">
		<rect x="267" y="227" width="80" height="25" fill="#f4a582" stroke="#f4a582" stroke-width="0"/>
		<rect x="267" y="252.0" width="80" height="161" fill="#fddbc7" stroke="#fddbc7" stroke-width="0"/>
		<rect x="267" y="227" width="80" height="186" fill="none" stroke="#d6604d" stroke-width="2"/>
		<line x1="267" y1="252" x2="347" y2="252" stroke="#d6604d" stroke-width="1"/>
	</g>
	<text x="275" y="244.7" fill="#000000" font-family="Verdana" font-size="12">PROJECTS</text>
	<text x="272" y="269.7" fill="#000000" font-family="Verdana" font-size="12">idt_project</text>
	<line x1="272" y1="272" x2="338" y2="272" stroke="#000000" stroke-width="1"/>
	<text x="272" y="286.7" fill="#000000" font-family="Verdana" font-size="12">language</text>
	<text x="272" y="303.7" fill="#000000" font-family="Verdana" font-size="12">short_label</text>
	<text x="272" y="320.8" fill="#000000" font-family="Verdana" font-size="12">detail</text>
	<text x="272" y="337.8" fill="#000000" font-family="Verdana" font-size="12">photo</text>
	<text x="272" y="354.8" fill="#000000" font-family="Verdana" font-size="12">date_start</text>
	<text x="272" y="371.8" fill="#000000" font-family="Verdana" font-size="12">date_end</text>
	<text x="272" y="388.8" fill="#000000" font-family="Verdana" font-size="12">created_at</text>
	<text x="272" y="405.8" fill="#000000" font-family="Verdana" font-size="12">updated_at</text>
</g>
</svg>